<svg id="Layer_1" data-name="Layer 1" xmlns="http://www.w3.org/2000/svg" viewBox="0 0 235.33 469.22" >
    <defs>
        <style>.carrinho{stroke:white; stroke-width: 5px; fill:none;}.carrinho-cart{fill:none;}.carrinho-pub{fill:none;}</style>
    </defs>
    <title>cart</title>
    <path class="carrinho ZMYbVavZ_0" d="M127.38,22.27l-2.2,3.86,1.6.89,2.82-5.61c1.21,0,3.25-.06,5.28,0,28.59,1,57.18,2.16,85.78,2.91,4.85.13,6.93,1.6,8.29,6.26,14.67,50.3,29.6,100.52,44.33,150.8,1.13,3.86,2.09,6.64,7.11,6.05,1.22-.14,3.64,2.76,4.12,4.62,2.4,9.27,4.35,18.65,6.51,28.24,1.89,0,3.78-.51,5.15.12,2.16,1,5.13,2.36,5.75,4.23,3.33,10.21,5.91,20.66,9.05,30.94,1.19,3.88-1.55,5-3.59,6.9-2.28,2.14-6.21,4.62-6.1,6.8.27,5.63,2.17,11.24,3.94,16.69.24.75,3.52,1,5.2.68,3.65-.8,5.1.68,6.24,3.95,1.28,3.69.87,8.63,6.42,9.84.83.18,1.28,2.63,1.69,4.08,2.9,10.15,5.59,20.37,8.69,30.45,1,3.31.73,5.64-2.38,7.16-4.7,2.3-5.57,5.8-3.74,10.42a11.58,11.58,0,0,1,.8,3.94c.11,6,2.45,8.78,8.87,7,1.29-.35,4.3,1,4.46,1.85,1.15,6.62,5.16,11.85,7.72,17.74,3.48,8,4.82,16.92,7,25.46.43,1.65.67,3.35,1,4.94-15.2,9.86-15.2,9.86-10.72,27,.67,2.56,1.25,5.15,2,8.41l-17.38,3.35c.44,4.31,1,8.24,1.22,12.19.52,8.2-1.53,12.06-9.61,14-10.6,2.5-21.48,3.86-32.27,5.55a164.55,164.55,0,0,1-18.84,2.33c-12.5.51-18.28-4.42-20.68-16.73-.18-.92-.43-1.82-.79-3.34-3.52.56-6.93.87-10.2,1.7-4.5,1.14-6.65-.46-7.87-4.86-2.76-10-2.91-9.92-13.15-8.56a11.4,11.4,0,0,1-2.28.33c-6.42-.47-8.55,2.36-9.1,8.88-1.34,15.85-13.14,27.28-26.41,26.85s-24.5-13.27-25.32-28.88c-.52-10,1.74-19.05,8.74-26.55a23.38,23.38,0,0,1,19.66-7.68c1.47.1,3-1.15,4.55-1.78a19.21,19.21,0,0,1-3.37-2.8c-1.14-1.47-2.59-3.19-2.71-4.88-2.83-40.41-5.63-80.81-8.17-121.23-1.4-22.42-1.56-45-3.81-67.27-1.14-11.29-5.65-22.25-8.66-33.35-.75-2.78-1.63-5.52-2.36-8.3-.29-1.1-.89-2.92-.43-3.29,4.8-3.92,1.39-8.17.4-12q-18.54-72.22-37.44-144.35C121.16,24.1,122.28,22.5,127.38,22.27Zm4.29,2.94,44.27,167.58c8.24-.9,15.33-2.07,22.46-2.38,22.43-1,44.87-1.6,67.31-2.4,2-.07,4-.41,6.41-.66-.32-1.56-.43-2.48-.69-3.35q-22.53-76.41-45-152.84c-1.13-3.84-3.35-4.42-6.76-4.5-16.5-.38-33-1.09-49.49-1.4C157.57,25,145,25.21,131.67,25.21ZM243.22,224.27c-1.92-9.83-3.83-19.1-5.52-28.42-.62-3.43-2.11-4.71-5.75-4.54-13.21.62-26.44.91-39.66,1.36a43.74,43.74,0,0,0-4.61.69q4.4,17.37,8.51,33.62Zm6.94,34c-2-10-3.7-19.23-5.89-28.32-.28-1.17-3.12-2.48-4.76-2.45-6.89.08-13.78.64-20.67,1s-14,.88-22,1.39c3.38,10.31,6.45,19.93,9.79,29.46.34,1,2.35,2,3.5,1.95C223.15,260.44,236.11,259.35,250.16,258.23Zm38.55-36.44c-2.3-10.23-4.31-19.57-6.62-28.84-.3-1.2-2.2-2.89-3.33-2.88-13,.16-25.92.61-39.62,1,2.35,11.58,4.5,22.14,6.73,33.12Zm7.38,32.89c-2-9.12-4-17.25-5.56-25.46-.7-3.63-2.46-4.62-5.92-4.36-8.2.62-16.43.94-24.64,1.45-4.32.27-8.63.69-13.53,1.1,2,9.6,3.72,18.58,5.78,27.49.27,1.14,2.24,2.76,3.33,2.7C268.7,256.82,281.83,255.75,296.09,254.68Zm-23.17,229c10.67-1.4,22.46-2.82,34.22-4.52A94.78,94.78,0,0,0,322.29,476c7.49-2.36,10.82-15.77,5.63-21.75a3.06,3.06,0,0,0-2.42-1c-6.3,1.46-13.55.28-18.05,6.8-7.49,10.83-20.16,15.8-36.64,6.3-4.81-2.76-9.06-2.6-13.6-1.33a6,6,0,0,0-3.35,4.56C254,478.71,260.86,483.92,272.92,483.64ZM219.37,316.1c3.1,11.14,5.91,21.58,9,31.93.29.94,2.75,1.83,4.12,1.72,7.07-.55,14.11-1.42,21.16-2.19,3.11-.35,6.22-.72,9.78-1.14-3-10.7-5.68-20.48-8.68-30.15-.4-1.29-2.64-2.95-3.92-2.86C240.78,314.05,230.71,315.08,219.37,316.1Zm55.44,76c-1.82-5.58-3.41-10.49-5-15.4l1.84-.67c1.37,3.63,2.91,7.2,4.05,10.89,1.08,3.51,2.94,4.89,6.73,4.23,6.8-1.19,13.66-1.93,20.49-3,2.72-.41,5.41-1.07,8.44-1.68-1.13-4.65-2.32-8.5-3-12.45-.58-3.61-2.38-4.11-5.62-3.64-13.46,2-27,3.69-40.44,5.55-7.29,1-14.57,2.1-22.44,3.24,2,5.26,3.4,9.68,5.44,13.75a5.87,5.87,0,0,0,4.69,2.57C258,394.69,265.94,393.37,274.81,392.09Zm55.36-52.81c-3.49-10.4-6.64-20-10-29.52-.36-1-1.79-2.49-2.62-2.44-9.81.7-19.6,1.65-30,2.6,3.51,10.77,6.58,20.42,9.88,30,.38,1.11,2.11,2.62,3.09,2.53C310.18,341.59,319.82,340.43,330.17,339.28Zm-73.73-26.46c3.1,10.8,6,21.05,9.07,31.26a3.26,3.26,0,0,0,2.44,1.86c9.06-.84,18.11-1.88,27.74-2.93-3.43-10.61-6.43-20.28-9.78-29.83a5.27,5.27,0,0,0-4.06-2.79C273.67,310.92,265.51,311.9,256.44,312.82Zm22.27,81.8c3.3,8.93,6.27,17.14,9.44,25.28.37,1,2,2.18,2.84,2.06,9.18-1.24,18.33-2.73,28.09-4.25-2.42-9.73-4.6-18.54-6.91-27.84Zm-91-106.51c-.6,1.08-.93,1.39-.92,1.7.56,24.53,1.12,49.07,1.83,73.6,0,1.18,1.31,3.24,2.19,3.35,6.51.75,13.07,1.12,19.88,1.62C202.88,341.14,195.4,315,187.7,288.11Zm98.77,134.64c-3.34-9-6.3-17.2-9.54-25.3a4.25,4.25,0,0,0-3.47-2c-8.44,1-16.84,2.33-25.55,3.59,2.57,8.88,4.73,17,7.37,24.94.43,1.31,3.07,2.87,4.5,2.7C268.3,425.7,276.75,424.24,286.47,422.75Zm63.9-9.8c-2.07-8.84-3.91-17-6-25.09a3.52,3.52,0,0,0-2.82-1.95c-8.84,1-17.66,2.33-26.92,3.6l6.92,27.85ZM253.05,310c-1.34-4.67-2.25-8.36-3.52-11.92-.43-1.19-1.87-3-2.75-2.91-10.36.67-20.7,1.64-31.62,2.57,1.17,4.92,1.86,8.87,3.16,12.6a4.7,4.7,0,0,0,3.73,2.36C232.11,312,242.15,311,253.05,310Zm56.81,59.65c1.22,5.15,1.9,9.31,3.3,13.22.51,1.42,2.81,3.29,4.11,3.16,7.59-.75,15.14-1.93,22.65-3.24,1-.18,2.67-2,2.54-2.79a91.56,91.56,0,0,0-3-12.2,3.57,3.57,0,0,0-3-1.71C327.87,367.12,319.23,368.37,309.86,369.65ZM318.31,304c-1.65-4.87-2.75-8.7-4.29-12.35a4.36,4.36,0,0,0-3.26-2.31c-9.43.66-18.83,1.6-29,2.53,1.58,4.88,2.69,8.9,4.26,12.74a4.33,4.33,0,0,0,3.43,2C298.7,306,308,305,318.31,304Zm-67.07-9.46c1.37,4.83,2.33,8.7,3.63,12.46.35,1,1.78,2.38,2.64,2.33,8.67-.53,17.33-1.32,26.47-2.08-1.5-4.82-2.43-8.54-3.87-12.06-.52-1.26-2.33-2.9-3.45-2.84C268.48,292.83,260.32,293.71,251.24,294.54ZM207.66,450.09a8.17,8.17,0,0,0,1.79-.69c4.31-3.21,8.76-6.26,12.79-9.79,1.4-1.22,2.85-4.05,2.35-5.45-1.16-3.25-.62-7.89-6.05-8.61-10-1.33-10.34-1.2-15.49,6.57-2,3-2,5.21,0,8.2C205,443.12,206,446.48,207.66,450.09Zm84.6-224.59c1.77,7.95,3.48,15.79,5.27,23.61,1.51,6.6,2.74,7.13,9.86,4.15-2.17-7.84-4.56-15.7-6.49-23.67C299.8,225,297.57,223.47,292.26,225.5Zm-99.41.5c-2.79-10.86-5.45-21.23-8.58-33.4-2.59,2.76-5.31,4.43-5.12,5.66,1.5,9.9,3.54,19.71,5.5,30Zm49.36,166.6c-1.33-3.61-2.06-7.34-4.06-10.17-.87-1.24-4.5-1.26-6.58-.7-1.63.44-4.06,2.71-4,4,.65,9.37,2.75,10.66,11.59,8C240.08,393.44,240.92,393.08,242.21,392.6Zm-15.26,47L211.3,451.47l.73,1.28,16.87-2.13ZM213,299.73c-7.92,2.45-8.93,3.76-6.54,9.43,2.07,4.89,5.55,1.38,9,1.15C214.64,306.61,213.87,303.37,213,299.73ZM203.87,425.8l-.76-2c-3.8.53-10.17,0-10.91,1.82-1.82,4.45,3.26,5.94,6.72,8.1C200.72,430.83,202.3,428.32,203.87,425.8Zm-33.41,34.87,4.23,4c1-1.18,2.93-2.46,2.82-3.53-.14-1.43-1.87-2.69-2.92-4Zm178-72.64-1.2.47q2.71,11.16,5.44,22.32l1.44-.37Q351.26,399.23,348.41,388Z" transform="translate(-121.87 -21.39)"></path>
    <path class="carrinho-cart ZMYbVavZ_1" d="M131.67,25.21c13.28,0,25.9-.19,38.51.05,16.5.31,33,1,49.49,1.4,3.41.08,5.63.66,6.76,4.5q22.38,76.46,45,152.84c.26.87.37,1.79.69,3.35-2.39.25-4.4.59-6.41.66-22.44.8-44.88,1.43-67.31,2.4-7.13.31-14.22,1.48-22.46,2.38Z" transform="translate(-121.87 -21.39)"></path>
    <path class="carrinho-pub ZMYbVavZ_2" d="M243.22,224.27l-47,2.71q-4.11-16.22-8.51-33.62a43.74,43.74,0,0,1,4.61-.69c13.22-.45,26.45-.74,39.66-1.36,3.64-.17,5.13,1.11,5.75,4.54C239.39,205.17,241.3,214.44,243.22,224.27Z" transform="translate(-121.87 -21.39)"></path>
    <path class="carrinho-pub ZMYbVavZ_3" d="M250.16,258.23c-14,1.12-27,2.21-40,3.08-1.15.08-3.16-1-3.5-1.95-3.34-9.53-6.41-19.15-9.79-29.46,7.94-.51,15-1,22-1.39s13.78-1,20.67-1c1.64,0,4.48,1.28,4.76,2.45C246.46,239,248.15,248.22,250.16,258.23Z" transform="translate(-121.87 -21.39)"></path>
    <path class="carrinho-pub ZMYbVavZ_4" d="M288.71,221.79l-42.84,2.39c-2.23-11-4.38-21.54-6.73-33.12,13.7-.38,26.66-.83,39.62-1,1.13,0,3,1.68,3.33,2.88C284.4,202.22,286.41,211.56,288.71,221.79Z" transform="translate(-121.87 -21.39)"></path>
    <path class="carrinho-pub ZMYbVavZ_5" d="M296.09,254.68c-14.26,1.07-27.39,2.14-40.54,2.92-1.09.06-3.06-1.56-3.33-2.7-2.06-8.91-3.81-17.89-5.78-27.49,4.9-.41,9.21-.83,13.53-1.1,8.21-.51,16.44-.83,24.64-1.45,3.46-.26,5.22.73,5.92,4.36C292.11,237.43,294.07,245.56,296.09,254.68Z" transform="translate(-121.87 -21.39)"></path>
    <path class="carrinho-pub ZMYbVavZ_6" d="M219.37,316.1c11.34-1,21.41-2.05,31.51-2.69,1.28-.09,3.52,1.57,3.92,2.86,3,9.67,5.65,19.45,8.68,30.15-3.56.42-6.67.79-9.78,1.14-7,.77-14.09,1.64-21.16,2.19-1.37.11-3.83-.78-4.12-1.72C225.28,337.68,222.47,327.24,219.37,316.1Z" transform="translate(-121.87 -21.39)"></path>
    <path class="carrinho-pub ZMYbVavZ_7" d="M274.81,392.09c-8.87,1.28-16.8,2.6-24.79,3.43a5.87,5.87,0,0,1-4.69-2.57c-2-4.07-3.42-8.49-5.44-13.75,7.87-1.14,15.15-2.24,22.44-3.24,13.48-1.86,27-3.58,40.44-5.55,3.24-.47,5,0,5.62,3.64.64,3.95,1.83,7.8,3,12.45-3,.61-5.72,1.27-8.44,1.68-6.83,1-13.69,1.77-20.49,3-3.79.66-5.65-.72-6.73-4.23-1.14-3.69-2.68-7.26-4.05-10.89l-1.84.67C271.4,381.6,273,386.51,274.81,392.09Z" transform="translate(-121.87 -21.39)"></path>
    <path class="carrinho-pub ZMYbVavZ_8" d="M330.17,339.28c-10.35,1.15-20,2.31-29.65,3.17-1,.09-2.71-1.42-3.09-2.53-3.3-9.58-6.37-19.23-9.88-30,10.43-.95,20.22-1.9,30-2.6.83-.05,2.26,1.41,2.62,2.44C323.53,319.29,326.68,328.88,330.17,339.28Z" transform="translate(-121.87 -21.39)"></path>
    <path class="carrinho-pub ZMYbVavZ_9" d="M256.44,312.82c9.07-.92,17.23-1.9,25.41-2.43a5.27,5.27,0,0,1,4.06,2.79c3.35,9.55,6.35,19.22,9.78,29.83-9.63,1.05-18.68,2.09-27.74,2.93a3.26,3.26,0,0,1-2.44-1.86C262.45,333.87,259.54,323.62,256.44,312.82Z" transform="translate(-121.87 -21.39)"></path>
    <path class="carrinho-pub ZMYbVavZ_10" d="M278.71,394.62l33.46-4.75c2.31,9.3,4.49,18.11,6.91,27.84-9.76,1.52-18.91,3-28.09,4.25-.86.12-2.47-1.11-2.84-2.06C285,411.76,282,403.55,278.71,394.62Z" transform="translate(-121.87 -21.39)"></path>
    <path class="carrinho-pub ZMYbVavZ_11" d="M286.47,422.75c-9.72,1.49-18.17,2.95-26.69,3.93-1.43.17-4.07-1.39-4.5-2.7-2.64-8-4.8-16.06-7.37-24.94,8.71-1.26,17.11-2.57,25.55-3.59a4.25,4.25,0,0,1,3.47,2C280.17,405.55,283.13,413.77,286.47,422.75Z" transform="translate(-121.87 -21.39)"></path>
    <path class="carrinho-pub ZMYbVavZ_12" d="M350.37,413l-28.81,4.41-6.92-27.85c9.26-1.27,18.08-2.56,26.92-3.6a3.52,3.52,0,0,1,2.82,1.95C346.46,396,348.3,404.11,350.37,413Z" transform="translate(-121.87 -21.39)"></path>
    <path class="carrinho-pub ZMYbVavZ_13" d="M253.05,310c-10.9,1-20.94,2-31,2.7a4.7,4.7,0,0,1-3.73-2.36c-1.3-3.73-2-7.68-3.16-12.6,10.92-.93,21.26-1.9,31.62-2.57.88-.06,2.32,1.72,2.75,2.91C250.8,301.64,251.71,305.33,253.05,310Z" transform="translate(-121.87 -21.39)"></path>
    <path class="carrinho-pub ZMYbVavZ_14" d="M309.86,369.65c9.37-1.28,18-2.53,26.67-3.56a3.57,3.57,0,0,1,3,1.71,91.56,91.56,0,0,1,3,12.2c.13.81-1.51,2.61-2.54,2.79-7.51,1.31-15.06,2.49-22.65,3.24-1.3.13-3.6-1.74-4.11-3.16C311.76,379,311.08,374.8,309.86,369.65Z" transform="translate(-121.87 -21.39)"></path>
    <path class="carrinho-pub ZMYbVavZ_15" d="M318.31,304c-10.34,1-19.61,1.95-28.9,2.64a4.33,4.33,0,0,1-3.43-2c-1.57-3.84-2.68-7.86-4.26-12.74,10.21-.93,19.61-1.87,29-2.53a4.36,4.36,0,0,1,3.26,2.31C315.56,295.3,316.66,299.13,318.31,304Z" transform="translate(-121.87 -21.39)"></path>
    <path class="carrinho-pub ZMYbVavZ_16" d="M251.24,294.54c9.08-.83,17.24-1.71,25.42-2.19,1.12-.06,2.93,1.58,3.45,2.84,1.44,3.52,2.37,7.24,3.87,12.06-9.14.76-17.8,1.55-26.47,2.08-.86.05-2.29-1.33-2.64-2.33C253.57,303.24,252.61,299.37,251.24,294.54Z" transform="translate(-121.87 -21.39)"></path>
    <path class="carrinho-pub ZMYbVavZ_17" d="M292.26,225.5c5.31-2,7.54-.47,8.64,4.09,1.93,8,4.32,15.83,6.49,23.67-7.12,3-8.35,2.45-9.86-4.15C295.74,241.29,294,233.45,292.26,225.5Z" transform="translate(-121.87 -21.39)"></path>
    <path class="carrinho-pub ZMYbVavZ_18" d="M192.85,226l-8.2,2.23c-2-10.26-4-20.07-5.5-30-.19-1.23,2.53-2.9,5.12-5.66C187.4,204.77,190.06,215.14,192.85,226Z" transform="translate(-121.87 -21.39)"></path>
    <path class="carrinho-pub ZMYbVavZ_19" d="M242.21,392.6c-1.29.48-2.13.84-3,1.11-8.84,2.7-10.94,1.41-11.59-8-.1-1.31,2.33-3.58,4-4,2.08-.56,5.71-.54,6.58.7C240.15,385.26,240.88,389,242.21,392.6Z" transform="translate(-121.87 -21.39)"></path>
    <path class="carrinho-pub ZMYbVavZ_20" d="M213,299.73c.86,3.64,1.63,6.88,2.5,10.58-3.49.23-7,3.74-9-1.15C204.08,303.49,205.09,302.18,213,299.73Z" transform="translate(-121.87 -21.39)"></path>
    <path class="carrinho-pub ZMYbVavZ_21" d="M170.46,460.67l4.13-3.56c1,1.34,2.78,2.6,2.92,4,.11,1.07-1.81,2.35-2.82,3.53Z" transform="translate(-121.87 -21.39)"></path>
    <path class="carrinho-pub ZMYbVavZ_22" d="M348.41,388q2.85,11.21,5.68,22.42l-1.44.37q-2.72-11.16-5.44-22.32Z" transform="translate(-121.87 -21.39)"></path>
<style data-made-with="vivus-instant">.ZMYbVavZ_0{stroke-dasharray:4630 4632;stroke-dashoffset:4631;animation:ZMYbVavZ_draw_0 10700ms ease-in 0ms infinite,ZMYbVavZ_fade 10700ms linear 0ms infinite;}.ZMYbVavZ_1{stroke-dasharray:530 532;stroke-dashoffset:531;animation:ZMYbVavZ_draw_1 10700ms ease-in 0ms infinite,ZMYbVavZ_fade 10700ms linear 0ms infinite;}.ZMYbVavZ_2{stroke-dasharray:164 166;stroke-dashoffset:165;animation:ZMYbVavZ_draw_2 10700ms ease-in 0ms infinite,ZMYbVavZ_fade 10700ms linear 0ms infinite;}.ZMYbVavZ_3{stroke-dasharray:153 155;stroke-dashoffset:154;animation:ZMYbVavZ_draw_3 10700ms ease-in 0ms infinite,ZMYbVavZ_fade 10700ms linear 0ms infinite;}.ZMYbVavZ_4{stroke-dasharray:151 153;stroke-dashoffset:152;animation:ZMYbVavZ_draw_4 10700ms ease-in 0ms infinite,ZMYbVavZ_fade 10700ms linear 0ms infinite;}.ZMYbVavZ_5{stroke-dasharray:146 148;stroke-dashoffset:147;animation:ZMYbVavZ_draw_5 10700ms ease-in 0ms infinite,ZMYbVavZ_fade 10700ms linear 0ms infinite;}.ZMYbVavZ_6{stroke-dasharray:138 140;stroke-dashoffset:139;animation:ZMYbVavZ_draw_6 10700ms ease-in 0ms infinite,ZMYbVavZ_fade 10700ms linear 0ms infinite;}.ZMYbVavZ_7{stroke-dasharray:198 200;stroke-dashoffset:199;animation:ZMYbVavZ_draw_7 10700ms ease-in 0ms infinite,ZMYbVavZ_fade 10700ms linear 0ms infinite;}.ZMYbVavZ_8{stroke-dasharray:131 133;stroke-dashoffset:132;animation:ZMYbVavZ_draw_8 10700ms ease-in 0ms infinite,ZMYbVavZ_fade 10700ms linear 0ms infinite;}.ZMYbVavZ_9{stroke-dasharray:126 128;stroke-dashoffset:127;animation:ZMYbVavZ_draw_9 10700ms ease-in 0ms infinite,ZMYbVavZ_fade 10700ms linear 0ms infinite;}.ZMYbVavZ_10{stroke-dasharray:122 124;stroke-dashoffset:123;animation:ZMYbVavZ_draw_10 10700ms ease-in 0ms infinite,ZMYbVavZ_fade 10700ms linear 0ms infinite;}.ZMYbVavZ_11{stroke-dasharray:116 118;stroke-dashoffset:117;animation:ZMYbVavZ_draw_11 10700ms ease-in 0ms infinite,ZMYbVavZ_fade 10700ms linear 0ms infinite;}.ZMYbVavZ_12{stroke-dasharray:115 117;stroke-dashoffset:116;animation:ZMYbVavZ_draw_12 10700ms ease-in 0ms infinite,ZMYbVavZ_fade 10700ms linear 0ms infinite;}.ZMYbVavZ_13{stroke-dasharray:98 100;stroke-dashoffset:99;animation:ZMYbVavZ_draw_13 10700ms ease-in 0ms infinite,ZMYbVavZ_fade 10700ms linear 0ms infinite;}.ZMYbVavZ_14{stroke-dasharray:90 92;stroke-dashoffset:91;animation:ZMYbVavZ_draw_14 10700ms ease-in 0ms infinite,ZMYbVavZ_fade 10700ms linear 0ms infinite;}.ZMYbVavZ_15{stroke-dasharray:93 95;stroke-dashoffset:94;animation:ZMYbVavZ_draw_15 10700ms ease-in 0ms infinite,ZMYbVavZ_fade 10700ms linear 0ms infinite;}.ZMYbVavZ_16{stroke-dasharray:87 89;stroke-dashoffset:88;animation:ZMYbVavZ_draw_16 10700ms ease-in 0ms infinite,ZMYbVavZ_fade 10700ms linear 0ms infinite;}.ZMYbVavZ_17{stroke-dasharray:75 77;stroke-dashoffset:76;animation:ZMYbVavZ_draw_17 10700ms ease-in 0ms infinite,ZMYbVavZ_fade 10700ms linear 0ms infinite;}.ZMYbVavZ_18{stroke-dasharray:82 84;stroke-dashoffset:83;animation:ZMYbVavZ_draw_18 10700ms ease-in 0ms infinite,ZMYbVavZ_fade 10700ms linear 0ms infinite;}.ZMYbVavZ_19{stroke-dasharray:46 48;stroke-dashoffset:47;animation:ZMYbVavZ_draw_19 10700ms ease-in 0ms infinite,ZMYbVavZ_fade 10700ms linear 0ms infinite;}.ZMYbVavZ_20{stroke-dasharray:36 38;stroke-dashoffset:37;animation:ZMYbVavZ_draw_20 10700ms ease-in 0ms infinite,ZMYbVavZ_fade 10700ms linear 0ms infinite;}.ZMYbVavZ_21{stroke-dasharray:21 23;stroke-dashoffset:22;animation:ZMYbVavZ_draw_21 10700ms ease-in 0ms infinite,ZMYbVavZ_fade 10700ms linear 0ms infinite;}.ZMYbVavZ_22{stroke-dasharray:49 51;stroke-dashoffset:50;animation:ZMYbVavZ_draw_22 10700ms ease-in 0ms infinite,ZMYbVavZ_fade 10700ms linear 0ms infinite;}@keyframes ZMYbVavZ_draw{100%{stroke-dashoffset:0;}}@keyframes ZMYbVavZ_fade{0%{stroke-opacity:1;}99.06542056074767%{stroke-opacity:1;}100%{stroke-opacity:0;}}@keyframes ZMYbVavZ_draw_0{0.9345794392523363%{stroke-dashoffset: 4631}94.39252336448598%{ stroke-dashoffset: 0;}100%{ stroke-dashoffset: 0;}}@keyframes ZMYbVavZ_draw_1{0.9345794392523363%{stroke-dashoffset: 531}94.39252336448598%{ stroke-dashoffset: 0;}100%{ stroke-dashoffset: 0;}}@keyframes ZMYbVavZ_draw_2{0.9345794392523363%{stroke-dashoffset: 165}94.39252336448598%{ stroke-dashoffset: 0;}100%{ stroke-dashoffset: 0;}}@keyframes ZMYbVavZ_draw_3{0.9345794392523363%{stroke-dashoffset: 154}94.39252336448598%{ stroke-dashoffset: 0;}100%{ stroke-dashoffset: 0;}}@keyframes ZMYbVavZ_draw_4{0.9345794392523363%{stroke-dashoffset: 152}94.39252336448598%{ stroke-dashoffset: 0;}100%{ stroke-dashoffset: 0;}}@keyframes ZMYbVavZ_draw_5{0.9345794392523363%{stroke-dashoffset: 147}94.39252336448598%{ stroke-dashoffset: 0;}100%{ stroke-dashoffset: 0;}}@keyframes ZMYbVavZ_draw_6{0.9345794392523363%{stroke-dashoffset: 139}94.39252336448598%{ stroke-dashoffset: 0;}100%{ stroke-dashoffset: 0;}}@keyframes ZMYbVavZ_draw_7{0.9345794392523363%{stroke-dashoffset: 199}94.39252336448598%{ stroke-dashoffset: 0;}100%{ stroke-dashoffset: 0;}}@keyframes ZMYbVavZ_draw_8{0.9345794392523363%{stroke-dashoffset: 132}94.39252336448598%{ stroke-dashoffset: 0;}100%{ stroke-dashoffset: 0;}}@keyframes ZMYbVavZ_draw_9{0.9345794392523363%{stroke-dashoffset: 127}94.39252336448598%{ stroke-dashoffset: 0;}100%{ stroke-dashoffset: 0;}}@keyframes ZMYbVavZ_draw_10{0.9345794392523363%{stroke-dashoffset: 123}94.39252336448598%{ stroke-dashoffset: 0;}100%{ stroke-dashoffset: 0;}}@keyframes ZMYbVavZ_draw_11{0.9345794392523363%{stroke-dashoffset: 117}94.39252336448598%{ stroke-dashoffset: 0;}100%{ stroke-dashoffset: 0;}}@keyframes ZMYbVavZ_draw_12{0.9345794392523363%{stroke-dashoffset: 116}94.39252336448598%{ stroke-dashoffset: 0;}100%{ stroke-dashoffset: 0;}}@keyframes ZMYbVavZ_draw_13{0.9345794392523363%{stroke-dashoffset: 99}94.39252336448598%{ stroke-dashoffset: 0;}100%{ stroke-dashoffset: 0;}}@keyframes ZMYbVavZ_draw_14{0.9345794392523363%{stroke-dashoffset: 91}94.39252336448598%{ stroke-dashoffset: 0;}100%{ stroke-dashoffset: 0;}}@keyframes ZMYbVavZ_draw_15{0.9345794392523363%{stroke-dashoffset: 94}94.39252336448598%{ stroke-dashoffset: 0;}100%{ stroke-dashoffset: 0;}}@keyframes ZMYbVavZ_draw_16{0.9345794392523363%{stroke-dashoffset: 88}94.39252336448598%{ stroke-dashoffset: 0;}100%{ stroke-dashoffset: 0;}}@keyframes ZMYbVavZ_draw_17{0.9345794392523363%{stroke-dashoffset: 76}94.39252336448598%{ stroke-dashoffset: 0;}100%{ stroke-dashoffset: 0;}}@keyframes ZMYbVavZ_draw_18{0.9345794392523363%{stroke-dashoffset: 83}94.39252336448598%{ stroke-dashoffset: 0;}100%{ stroke-dashoffset: 0;}}@keyframes ZMYbVavZ_draw_19{0.9345794392523363%{stroke-dashoffset: 47}94.39252336448598%{ stroke-dashoffset: 0;}100%{ stroke-dashoffset: 0;}}@keyframes ZMYbVavZ_draw_20{0.9345794392523363%{stroke-dashoffset: 37}94.39252336448598%{ stroke-dashoffset: 0;}100%{ stroke-dashoffset: 0;}}@keyframes ZMYbVavZ_draw_21{0.9345794392523363%{stroke-dashoffset: 22}94.39252336448598%{ stroke-dashoffset: 0;}100%{ stroke-dashoffset: 0;}}@keyframes ZMYbVavZ_draw_22{0.9345794392523363%{stroke-dashoffset: 50}94.39252336448598%{ stroke-dashoffset: 0;}100%{ stroke-dashoffset: 0;}}</style></svg>